<?xml version="1.0" encoding="UTF-8" standalone="no"?>
<!-- Created with Inkscape (http://www.inkscape.org/) -->

<svg
   width="1702.4829"
   height="2096.0474"
   viewBox="0 0 450.44858 554.57919"
   version="1.1"
   id="svg1"
   xml:space="preserve"
   inkscape:export-filename="small_spark.png"
   inkscape:export-xdpi="7.3280787"
   inkscape:export-ydpi="7.3280787"
   inkscape:version="1.3.2 (091e20e, 2023-11-25, custom)"
   sodipodi:docname="fire1.svg"
   xmlns:inkscape="http://www.inkscape.org/namespaces/inkscape"
   xmlns:sodipodi="http://sodipodi.sourceforge.net/DTD/sodipodi-0.dtd"
   xmlns="http://www.w3.org/2000/svg"
   xmlns:svg="http://www.w3.org/2000/svg"><sodipodi:namedview
     id="namedview1"
     pagecolor="#505050"
     bordercolor="#ffffff"
     borderopacity="1"
     inkscape:showpageshadow="0"
     inkscape:pageopacity="0"
     inkscape:pagecheckerboard="1"
     inkscape:deskcolor="#505050"
     inkscape:document-units="mm"
     showgrid="true"
     inkscape:zoom="0.45254834"
     inkscape:cx="764.55921"
     inkscape:cy="1282.7359"
     inkscape:window-width="2560"
     inkscape:window-height="1566"
     inkscape:window-x="-11"
     inkscape:window-y="-11"
     inkscape:window-maximized="1"
     inkscape:current-layer="layer1"><inkscape:grid
       id="grid1"
       units="mm"
       originx="214.64096"
       originy="266.70625"
       spacingx="0.99999997"
       spacingy="1"
       empcolor="#0099e5"
       empopacity="0.30196078"
       color="#0099e5"
       opacity="0.14901961"
       empspacing="5"
       dotted="false"
       gridanglex="30"
       gridanglez="30"
       visible="true" /></sodipodi:namedview><defs
     id="defs1"><inkscape:path-effect
       effect="skeletal"
       id="path-effect48"
       is_visible="true"
       lpeversion="1"
       pattern="M 0,4.9921382 C 0,2.2364779 2.2364779,0 4.9921382,0 c 2.7556604,0 4.9921383,2.2364779 4.9921383,4.9921382 0,2.7556604 -2.2364779,4.9921383 -4.9921383,4.9921383 C 2.2364779,9.9842765 0,7.7477986 0,4.9921382 Z"
       copytype="single_stretched"
       prop_scale="1"
       scale_y_rel="false"
       spacing="0"
       normal_offset="0"
       tang_offset="0"
       prop_units="false"
       vertical_pattern="false"
       hide_knot="false"
       fuse_tolerance="0" /><inkscape:path-effect
       effect="fillet_chamfer"
       id="path-effect122"
       is_visible="true"
       lpeversion="1"
       nodesatellites_param="F,0,0,1,0,2.2135981,0,1 @ F,0,0,1,0,5.0000022,0,1 @ F,0,0,1,0,3.999996,0,1 @ F,0,0,1,0,5.0000041,0,1 @ F,0,0,1,0,1.7998982,0,1 @ F,0,0,1,0,1.4484088,0,1"
       radius="0"
       unit="px"
       method="auto"
       mode="F"
       chamfer_steps="1"
       flexible="false"
       use_knot_distance="true"
       apply_no_radius="true"
       apply_with_radius="true"
       only_selected="false"
       hide_knots="false" /><inkscape:path-effect
       effect="skeletal"
       id="path-effect106"
       is_visible="true"
       lpeversion="1"
       pattern="M 0,4.9921382 C 0,2.2364779 2.2364779,0 4.9921382,0 c 2.7556604,0 4.9921383,2.2364779 4.9921383,4.9921382 0,2.7556604 -2.2364779,4.9921383 -4.9921383,4.9921383 C 2.2364779,9.9842765 0,7.7477986 0,4.9921382 Z"
       copytype="single_stretched"
       prop_scale="1"
       scale_y_rel="false"
       spacing="0"
       normal_offset="0"
       tang_offset="0"
       prop_units="false"
       vertical_pattern="false"
       hide_knot="false"
       fuse_tolerance="0" /><inkscape:path-effect
       effect="fillet_chamfer"
       id="path-effect5"
       is_visible="true"
       lpeversion="1"
       nodesatellites_param="F,0,0,1,0,3.7041667,0,1 @ F,0,0,1,0,3.7041667,0,1 @ F,0,0,1,0,3.7041667,0,1 @ F,0,0,1,0,3.7041667,0,1"
       radius="14"
       unit="px"
       method="auto"
       mode="F"
       chamfer_steps="1"
       flexible="false"
       use_knot_distance="true"
       apply_no_radius="true"
       apply_with_radius="true"
       only_selected="false"
       hide_knots="false" /><inkscape:path-effect
       effect="fillet_chamfer"
       id="path-effect3"
       is_visible="true"
       lpeversion="1"
       nodesatellites_param="F,0,0,1,0,3.7041667,0,1 @ F,0,0,1,0,3.7041667,0,1 @ F,0,0,1,0,3.7041667,0,1 @ F,0,0,1,0,3.7041667,0,1"
       radius="14"
       unit="px"
       method="auto"
       mode="F"
       chamfer_steps="1"
       flexible="false"
       use_knot_distance="true"
       apply_no_radius="true"
       apply_with_radius="true"
       only_selected="false"
       hide_knots="false" /><inkscape:path-effect
       effect="skeletal"
       id="path-effect48-0"
       is_visible="true"
       lpeversion="1"
       pattern="M 0,4.9921382 C 0,2.2364779 2.2364779,0 4.9921382,0 c 2.7556604,0 4.9921383,2.2364779 4.9921383,4.9921382 0,2.7556604 -2.2364779,4.9921383 -4.9921383,4.9921383 C 2.2364779,9.9842765 0,7.7477986 0,4.9921382 Z"
       copytype="single_stretched"
       prop_scale="1"
       scale_y_rel="false"
       spacing="0"
       normal_offset="0"
       tang_offset="0"
       prop_units="false"
       vertical_pattern="false"
       hide_knot="false"
       fuse_tolerance="0" /><inkscape:path-effect
       effect="fillet_chamfer"
       id="path-effect122-4"
       is_visible="true"
       lpeversion="1"
       nodesatellites_param="F,0,0,1,0,2.2135981,0,1 @ F,0,0,1,0,5.0000022,0,1 @ F,0,0,1,0,3.999996,0,1 @ F,0,0,1,0,5.0000041,0,1 @ F,0,0,1,0,1.7998982,0,1 @ F,0,0,1,0,1.4484088,0,1"
       radius="0"
       unit="px"
       method="auto"
       mode="F"
       chamfer_steps="1"
       flexible="false"
       use_knot_distance="true"
       apply_no_radius="true"
       apply_with_radius="true"
       only_selected="false"
       hide_knots="false" /><inkscape:path-effect
       effect="skeletal"
       id="path-effect106-0"
       is_visible="true"
       lpeversion="1"
       pattern="M 0,4.9921382 C 0,2.2364779 2.2364779,0 4.9921382,0 c 2.7556604,0 4.9921383,2.2364779 4.9921383,4.9921382 0,2.7556604 -2.2364779,4.9921383 -4.9921383,4.9921383 C 2.2364779,9.9842765 0,7.7477986 0,4.9921382 Z"
       copytype="single_stretched"
       prop_scale="1"
       scale_y_rel="false"
       spacing="0"
       normal_offset="0"
       tang_offset="0"
       prop_units="false"
       vertical_pattern="false"
       hide_knot="false"
       fuse_tolerance="0" /><inkscape:path-effect
       effect="fillet_chamfer"
       id="path-effect5-0"
       is_visible="true"
       lpeversion="1"
       nodesatellites_param="F,0,0,1,0,3.7041667,0,1 @ F,0,0,1,0,3.7041667,0,1 @ F,0,0,1,0,3.7041667,0,1 @ F,0,0,1,0,3.7041667,0,1"
       radius="14"
       unit="px"
       method="auto"
       mode="F"
       chamfer_steps="1"
       flexible="false"
       use_knot_distance="true"
       apply_no_radius="true"
       apply_with_radius="true"
       only_selected="false"
       hide_knots="false" /><inkscape:path-effect
       effect="fillet_chamfer"
       id="path-effect3-2"
       is_visible="true"
       lpeversion="1"
       nodesatellites_param="F,0,0,1,0,3.7041667,0,1 @ F,0,0,1,0,3.7041667,0,1 @ F,0,0,1,0,3.7041667,0,1 @ F,0,0,1,0,3.7041667,0,1"
       radius="14"
       unit="px"
       method="auto"
       mode="F"
       chamfer_steps="1"
       flexible="false"
       use_knot_distance="true"
       apply_no_radius="true"
       apply_with_radius="true"
       only_selected="false"
       hide_knots="false" /></defs><g
     inkscape:label="Layer 1"
     inkscape:groupmode="layer"
     id="layer1"
     transform="translate(214.64097,266.70626)"><circle
       style="fill:#db2e1d;fill-opacity:1;stroke-width:0.264583"
       id="path1"
       cx="-319.2937"
       cy="-191.28613"
       r="71.912201" /><circle
       style="fill:#ffa31f;fill-opacity:1;stroke-width:0.264583"
       id="path2"
       cx="-319.2937"
       cy="-65.585938"
       r="50.864731" /><ellipse
       style="fill:#ffea4a;fill-opacity:1;stroke-width:0.264583"
       id="path3"
       cx="-319.2937"
       cy="23.281181"
       rx="36.248428"
       ry="35.079124" /><circle
       style="fill:#1a1a1a;stroke-width:0.264583"
       id="path4"
       cx="-319.2937"
       cy="83.500351"
       r="22.21678" /><g
       id="g51"
       transform="matrix(1.4081713,0,0,1.2761047,-3.6736879,-38.032666)"><path
         id="circle4"
         style="fill:#db2e1d;fill-opacity:1;stroke-width:0.264583"
         d="m 19.937993,-177.83933 c -39.93875,22.69645 -57.790944,40.15031 -71.912406,71.9124 -0.495758,1.32906 0.639236,2.86654 0.30334,4.24471 -4.778268,19.60504 -31.721342,31.447131 -31.614607,51.625785 10.016095,16.158807 30.3907,27.574485 28.387931,45.2742391 C -57.59369,19.043562 -83.057008,38.37508 -105.76234,46.0824 c -13.48537,-4.781047 -8.65598,-5.447932 -19.96209,-18.473291 -9.23697,11.910571 -1.56084,38.976433 -1.80351,50.629467 -0.20282,9.739788 7.27748,18.937411 6.0234,28.598254 -2.7083,20.86344 -22.80837,18.0151 -28.31196,61.8939 12.54116,6.94834 24.65969,-20.9968 38.79194,-18.58026 23.634999,4.04146 39.909244,27.22974 50.865117,50.86511 8.781705,13.49007 -24.430207,12.60488 -24.382841,41.62819 5.436705,6.34511 27.075647,-9.42787 35.386576,-8.56376 20.020209,2.08155 34.218098,20.98879 54.3436971,21.30796 18.6235429,0.29535 32.7960199,-21.32265 51.4133989,-21.88549 15.934147,-0.48172 29.40252,19.06225 45.054612,16.03882 30.9478,-5.97802 77.76613,-37.68271 66.77133,-68.74743 -14.65252,9.59608 -11.61781,20.992 -30.97455,20.22171 -23.49154,-4.80504 -50.864651,-26.88719 -50.864591,-50.86511 6e-5,-23.9778 28.159221,-43.15739 50.864591,-50.864599 4.70781,-1.540386 9.3996,-2.679897 18.08908,5.142789 C 165.09805,65.014227 84.147346,48.305062 80.783892,16.363283 78.19591,-8.2140601 138.7389,-33.239258 126.45294,-76.978823 100.37488,-40.90317 90.042187,-25.864957 70.802589,-27.583388 46.919742,-29.716543 26.832299,-55.483107 19.937993,-78.4485 c -1.911963,-6.368878 -0.101304,-22.22677 -0.749825,-28.84475 -1.269227,-12.95211 -11.0659475,-13.70217 -10.3585407,-26.69708 0.8846691,-16.25118 8.5504127,-18.80842 23.6750407,-42.70179 -1.967569,-3.71776 -8.611331,-2.5784 -12.566675,-1.14721 z M 8.7174895,110.0909 c 0.5690645,0.0406 0.9341798,1.14228 0.5984131,1.60352 -0.2825201,0.3881 -1.2030393,0.35363 -1.4386719,-0.0646 -0.2868864,-0.5092 0.2572866,-1.58055 0.8402588,-1.53892 z"
         sodipodi:nodetypes="cccccccccccccccccccccccccccccccccc" /><path
         id="circle18"
         style="fill:#ffa31f;fill-opacity:1;stroke-width:0.264583"
         d="m -13.845991,-104.04694 c -14.031088,1.9362 -28.127691,16.012786 -30.046745,30.04623 -1.329349,9.721114 14.070592,15.833405 14.46165,25.637195 0.449794,11.276304 -12.443226,19.576484 -14.232207,30.719055 -0.08082,0.503377 -0.225187,1.20497 0.176217,1.519287 0.726659,0.569006 1.870859,-0.641185 2.746602,-0.349849 15.954602,5.307657 21.924458,18.2647001 21.924458,35.078996 0,16.814296 -5.781061,30.376733 -21.924458,35.078995 -4.277187,1.245863 -10.271673,-6.13095 -13.09274,-2.68304 -6.969613,8.518267 14.400978,19.489843 12.902054,30.393494 -2.875451,20.916957 -33.74168,29.169067 -39.565543,49.463647 -0.669291,2.3323 -1.243093,5.98757 0.840775,7.23057 7.849108,4.6819 16.502224,-11.92322 25.46873,-10.15391 16.496327,3.25512 34.091226,18.40406 36.248433,35.07952 1.525993,11.79611 -21.040121,18.9069 -18.483109,30.5232 3.950221,17.94554 29.9270225,21.40367 45.7145222,30.80587 0.8698908,0.51806 1.6859598,1.51699 2.6923418,1.40612 15.413036,-1.69803 20.139903,-28.33435 35.557003,-29.99507 11.413962,-1.2295 19.804538,20.38846 30.449821,16.091 9.799958,-3.9562 9.380408,-19.56668 9.891386,-30.1227 0.353459,-7.30193 1.846429,-18.35075 -4.79764,-21.40025 -10.395166,-4.77119 -18.954921,17.7309 -30.281356,16.13855 -16.650553,-2.34085 -36.248432,-18.2647 -36.248433,-35.07899 -1e-6,-16.8143 19.609825,-32.65469 36.248433,-35.079 11.063876,-1.61205 19.808537,20.57999 29.757357,15.47812 3.76265,-1.92953 2.217166,-8.34603 1.813843,-12.5553 C 83.314922,98.157118 74.168411,88.812145 73.424134,77.718712 72.983339,71.148674 77.197412,64.943022 77.359294,58.360203 77.471485,53.798046 81.656924,37.332836 77.633429,35.179386 67.463727,38.097193 57.609749,54.787512 47.541993,53.098526 30.959428,50.316605 16.119687,40.043942 14.801473,23.281399 13.719455,9.522366 31.061635,2.4234306 36.180413,-10.39374 c 0.902365,-2.259477 0.848746,-4.817741 0.838191,-7.25072 -0.01009,-2.325985 1.043753,-5.59028 -0.861446,-6.924642 -4.18015,-2.92769 -10.008302,4.787768 -14.924153,3.416846 C 5.0367332,-25.669039 -13.859172,-39.456759 -15.015429,-56.231252 -15.99595,-70.45624 14.152839,-75.934145 11.351437,-89.914984 9.4594506,-99.357242 -4.3064448,-105.36334 -13.845991,-104.04694 Z"
         sodipodi:nodetypes="cccccccccccccccccccccccccccccccccccccc" /><path
         id="ellipse30"
         style="fill:#ffea4a;fill-opacity:1;stroke-width:0.189785"
         d="m -16.889217,53.735163 c -0.149693,7.977809 11.2116753,9.843583 10.3843798,17.779793 -1.0858616,10.416624 -12.2915068,18.873819 -22.2167318,22.216732 -1.865056,0.628169 -4.083696,-1.666736 -5.849772,-0.798401 -7.636235,3.754543 -10.97789,13.807293 -12.711369,22.138183 -0.178481,0.85776 -0.450676,2.14575 0.290938,2.61224 3.97634,2.5012 8.720515,-5.70324 13.300481,-4.65863 10.210846,2.32891 20.327528,11.91547 22.216731,22.21674 1.09209,5.95485 -8.838071,10.67155 -7.449674,16.56436 0.883716,3.75078 7.422524,3.7795 8.9498411,7.31738 0.05051,0.117 -0.03951,0.25456 -0.026872,0.38137 0.240573,2.41399 2.2664209,4.61301 1.93425,7.01611 -1.2160397,8.79748 -14.828483,13.98181 -13.783139,22.8012 1.419279,11.97422 13.4388581,24.4761 25.4320403,25.72504 9.2375247,0.96197 14.1811337,-13.35336 23.2507767,-15.35307 1.289124,-0.28423 2.6305,0.89018 3.91604,0.59015 4.998596,-1.1666 7.517007,-8.44798 12.637988,-8.79792 2.44024,-0.16675 4.090998,3.29126 6.536552,3.33417 2.286181,0.0401 3.948108,-3.19074 6.216158,-2.9006 6.814349,0.87173 9.146729,11.77837 15.881201,13.13563 2.854214,0.57523 7.05951,0.0787 8.361764,-2.52543 2.189062,-4.37751 -5.052901,-8.89813 -5.035869,-13.79244 0.01742,-5.00544 7.493905,-9.59596 5.248259,-14.06942 -1.335455,-2.66031 -5.603905,-2.3003 -8.574154,-2.49597 -0.460607,-0.0303 -0.93961,0.0396 -1.368908,0.20929 -7.684661,3.03691 -12.182452,13.96455 -20.445264,14.01723 -8.1047,0.0517 -12.224825,-12.21051 -20.227706,-13.4922 -1.926453,-0.30853 -3.738413,2.00123 -5.639966,1.56476 -3.931471,-0.9024 -8.145644,-4.07304 -9.08265,-7.99641 -0.303857,-1.27229 1.615078,-2.34589 1.455726,-3.64422 C 15.667573,154.32266 1.5051533,150.53567 1.6801929,141.96544 1.8662984,132.85341 13.734628,128.1871 18.554615,120.45202 c 0.413966,-0.66433 0.509472,-1.52185 1.020093,-2.11512 3.761669,-4.37054 8.72154,-8.24982 14.28905,-9.75134 0.245115,-0.0661 0.507035,0.0801 0.759644,0.0548 4.305849,-0.43122 10.959719,0.55862 12.506213,-3.48299 C 49.942694,97.805637 39.258473,92.956768 37.636417,85.254169 37.180172,83.087615 43.693152,76.756366 42.742356,60.764798 35.275748,71.834117 28.560278,75.885571 25.650794,75.02274 15.609953,72.045047 13.41526,70.787774 8.6518604,60.764798 6.9314733,53.487305 14.059627,49.703636 13.939393,38.097193 14.248661,30.21477 5.002277,13.668358 -3.3997764,12.064632 -13.009853,17.08076 -10.209739,39.880537 -16.889217,53.735163 Z"
         sodipodi:nodetypes="ccccccccccccccccccccccccccccccccccccccccccc" /></g></g></svg>
